<svg width="35" height="35" viewBox="0 0 35 35" fill="none" xmlns="http://www.w3.org/2000/svg">
<rect width="35" height="35" fill="white"/>
<path d="M18 13.7823L17.5948 13.2221C17.3206 12.8428 17.0128 12.5225 16.6777 12.2633L16.6776 12.2633C16.0189 11.7538 15.2802 11.5 14.4696 11.5C13.3719 11.5 12.3692 11.9376 11.6368 12.7319L18 13.7823ZM18 13.7823L18.4051 13.2221M18 13.7823L18.4051 13.2221M18.4051 13.2221C18.6795 12.8427 18.9872 12.5225 19.3222 12.2633C19.9811 11.7538 20.7198 11.5 21.5304 11.5C22.6281 11.5 23.6307 11.9376 24.3631 12.732C25.0886 13.5189 25.5 14.6073 25.5 15.8083C25.5 17.018 25.0559 18.1476 24.0282 19.3875L24.0282 19.3875C23.0934 20.5155 21.7397 21.6712 20.1167 23.0542L20.1167 23.0543L20.1023 23.0665C19.5554 23.5327 18.9341 24.0623 18.2891 24.6263L18.2889 24.6265C18.2094 24.6962 18.1068 24.7349 18 24.7349C17.8933 24.7349 17.7908 24.6963 17.7109 24.6263L17.7106 24.626C17.0608 24.0579 16.4353 23.5248 15.8856 23.0563L15.8837 23.0546L15.8836 23.0546M18.4051 13.2221L15.8836 23.0546M15.8836 23.0546C14.2604 21.6713 12.9067 20.5155 11.9719 19.3876C10.9442 18.1475 10.5 17.018 10.5 15.8085C10.5 14.6073 10.9114 13.5189 11.6368 12.732L15.8836 23.0546Z" stroke="#ED165F"/>
</svg>
